<svg width="155" height="109" viewBox="0 0 155 109" fill="none" xmlns="http://www.w3.org/2000/svg">
<path d="M144.061 42.816C128.844 39.5128 117.046 29.2834 113.048 24.4663C105.606 55.846 101.884 98.7387 101.884 98.7387C143.647 89.2422 144.061 42.4031 144.061 42.816Z" fill="url(#paint0_linear_2081_891)"/>
<path d="M113.36 13.9807C101.515 23.3235 86.4162 25.4743 80.7956 25.34C82.0294 27.4878 84.3103 32.0082 84.3103 32.3304C95.8257 32.3304 108.836 25.9276 113.36 22.8402C119.94 32.5051 135.568 39.7538 145.027 41.7673C143.053 83.6486 115.416 97.609 101.433 99.3541C91.8919 97.0989 82.3283 84.2792 79.0382 78.6414L74.6448 85.6317C88.2166 104.156 101.022 106.603 101.433 106.603C116.239 105.797 131.456 93.3135 135.98 88.0783C153.664 68.7485 152.842 36.9349 152.842 36.5322C128.988 32.5051 113.36 14.3834 113.36 13.9807Z" fill="url(#paint1_linear_2081_891)"/>
<path d="M83.1178 29.2041C82.7589 28.4751 82.384 27.7126 81.9972 26.8967C77.8199 16.2485 63.643 5.68933 53.5836 0.938173C53.3937 0.84837 53.2046 0.756833 53.0163 0.663574C51.825 0.0768416 51.0822 -0.288632 49.5459 0.296126C40.2459 3.79241 31.5795 8.75946 23.884 15.004C-11.289 41.7329 -7.57629 87.6838 34.7748 104.723C38.6162 106.494 42.6609 107.919 46.7544 109C72.8111 95.3192 81.9822 75.6113 85.4467 66.3678C87.6729 58.1031 88.0986 49.7891 86.7228 41.4267C86.4875 36.0513 85.0359 33.0998 83.1178 29.2041Z" fill="white"/>
<path d="M142.266 23.3311C141.109 23.6728 139.034 24.2003 139.937 23.3311L142.527 21.2568C143.023 20.9377 143.325 20.3579 143.295 19.7751L143.155 16.5451C143.115 15.6956 143.332 15.6265 143.803 16.3377L145.877 19.5183C146.076 19.8206 146.358 19.9588 146.724 19.9332L150.353 19.6763C151.218 19.6102 151.287 19.8176 150.563 20.2986L147.332 22.4322C147.006 22.6426 146.874 22.9419 146.934 23.3311C147.053 24.1312 147.542 26.7685 146.864 27.2229C146.578 27.4204 146.365 27.3572 146.226 27.0352C145.578 25.5239 145.257 22.3433 142.266 23.3311ZM147.95 105.306L147.193 100.93C147.126 100.548 146.904 100.318 146.525 100.239C145.276 99.9817 144.249 99.4187 143.444 98.5494C144.707 98.0615 146.056 97.8906 147.492 98.0358C147.891 98.0753 148.183 97.9202 148.369 97.5715L150.014 94.4008C150.413 93.6432 150.645 93.6926 150.712 94.549L151.011 98.4309C151.031 98.7667 151.201 99.0038 151.52 99.1421L154.8 100.555C155.113 100.689 155.046 101.187 154.69 101.216L150.682 101.542C150.547 101.551 150.417 101.593 150.302 101.664C150.187 101.734 150.092 101.832 150.024 101.947L147.95 105.306Z" fill="#FEFEFF"/>
<path d="M85.4467 66.3681C87.6729 58.1035 88.0986 49.7894 86.7228 41.427C86.4437 35.046 84.4498 32.0827 81.9972 26.897C77.8199 16.2489 63.6431 5.68965 53.5837 0.938495C52.0284 0.207549 51.3106 -0.375233 49.546 0.296448C40.2459 3.79273 31.5795 8.75978 23.884 15.0043C33.9933 26.4228 41.1016 36.4092 45.0895 51.0083C45.3617 52.002 45.9469 52.2361 46.8442 51.7096L47.0406 51.5931C51.6326 48.8639 62.989 42.1175 68.0197 42.0394C70.559 41.993 71.8252 43.5507 71.8182 46.7116L75.8021 65.6865L64.2612 85.1356C65.9461 86.5778 64.4506 88.0495 63.0548 88.662C56.2027 91.7042 49.1982 94.3977 42.0687 96.732C38.1805 98.0062 36.8446 101.562 34.8507 104.723C38.6846 106.491 42.6678 107.922 46.7544 109C72.8112 95.3195 81.9823 75.6116 85.4467 66.3681Z" fill="#EDEDED"/>
<path d="M64.7806 85.1353C53.465 91.9707 39.8664 96.0699 26.8759 98.7961C26.4373 98.888 25.9787 98.805 25.6028 98.567C25.2262 98.3293 24.9599 97.9535 24.8621 97.5219C18.322 69.2817 45.8781 51.4426 68.928 44.2023C69.0672 44.1516 69.2181 44.1414 69.3629 44.1729C69.5078 44.2044 69.6405 44.2763 69.7455 44.3801C83.9732 57.1746 80.5217 75.6301 64.7806 85.1353ZM61.4507 66.1406C61.4507 65.4202 61.1619 64.7293 60.6477 64.2198C60.1336 63.7104 59.4362 63.4242 58.7091 63.4242C57.9819 63.4242 57.2846 63.7104 56.7704 64.2198C56.2563 64.7293 55.9674 65.4202 55.9674 66.1406C55.9674 66.861 56.2563 67.5519 56.7704 68.0613C57.2846 68.5708 57.9819 68.8569 58.7091 68.8569C59.4362 68.8569 60.1336 68.5708 60.6477 68.0613C61.1619 67.5519 61.4507 66.861 61.4507 66.1406ZM56.4559 70.6349C56.4559 70.221 56.29 69.824 55.9946 69.5314C55.6992 69.2387 55.2985 69.0743 54.8807 69.0743C54.463 69.0743 54.0623 69.2387 53.7669 69.5314C53.4715 69.824 53.3055 70.221 53.3055 70.6349C53.3055 71.0488 53.4715 71.4458 53.7669 71.7385C54.0623 72.0312 54.463 72.1956 54.8807 72.1956C55.2985 72.1956 55.6992 72.0312 55.9946 71.7385C56.29 71.4458 56.4559 71.0488 56.4559 70.6349Z" fill="#000C1D"/>
<defs>
<linearGradient id="paint0_linear_2081_891" x1="122.972" y1="24.4663" x2="122.972" y2="99.6125" gradientUnits="userSpaceOnUse">
<stop stop-color="#A0C3D5"/>
<stop offset="1" stop-color="#5C8093"/>
</linearGradient>
<linearGradient id="paint1_linear_2081_891" x1="114.185" y1="13.9807" x2="114.185" y2="106.603" gradientUnits="userSpaceOnUse">
<stop stop-color="#A8CCDF"/>
<stop offset="1" stop-color="#567A8D"/>
</linearGradient>
</defs>
</svg>
