<svg width="155" height="16" viewBox="0 0 155 16" fill="none" xmlns="http://www.w3.org/2000/svg">
<path d="M6.12105 12.9934C7.03697 13.7944 12.8719 13.255 14.1304 12.8157C14.2359 12.7789 14.2678 12.8112 14.226 12.9126L13.0531 15.7322C13.007 15.844 12.9223 15.9002 12.7994 15.9002C7.65966 15.9173 4.30336 15.9141 2.7308 15.8905C-0.00379247 15.8453 -0.293724 13.9042 0.19389 11.695C0.692377 9.43411 1.34604 6.88127 2.15423 4.03709C3.16241 0.500446 5.43904 0.183924 9.01049 0.167775C11.5365 0.154855 14.0613 0.154855 16.585 0.167775C16.6042 0.168027 16.6232 0.172143 16.6407 0.179868C16.6583 0.187592 16.674 0.198761 16.687 0.212685C16.7 0.226609 16.7099 0.242992 16.7161 0.260821C16.7224 0.278651 16.7249 0.297548 16.7234 0.316346L16.4532 3.01001C16.44 3.13694 16.3718 3.18216 16.2489 3.14566C14.1271 2.54169 11.4584 2.82268 9.23782 2.82591C8.7568 2.82591 8.36803 3.37498 8.24612 3.8433C7.48834 6.76305 6.74045 9.68797 6.00244 12.6187C5.98563 12.6859 5.98794 12.7566 6.0087 12.8225C6.02945 12.8884 6.06833 12.9475 6.12105 12.9934ZM32.5478 0.24852C35.2989 0.342185 35.4768 2.22517 35.0188 4.43759C34.5142 6.86828 33.8997 9.27579 33.1771 11.653C32.2546 14.6696 30.8741 15.8679 27.7112 15.8937C24.6824 15.9215 21.6532 15.9205 18.6244 15.8905C15.9063 15.8614 15.4879 14.0301 16.0018 11.779C16.3863 10.0885 17.0189 7.59086 17.8996 4.28579C18.9012 0.516595 21.1185 0.190383 24.8942 0.154855C27.4486 0.130955 30 0.162284 32.5478 0.24852ZM26.9666 12.2182C27.6947 9.44057 28.4031 6.66293 29.0949 3.87883C29.3157 2.99063 28.9137 2.82914 28.1065 2.82591C27.2598 2.82268 24.4132 2.49324 24.1364 3.54939C23.3875 6.43038 22.6219 9.42442 21.84 12.5315C21.7544 12.8651 22.0005 13.2156 22.354 13.2518C23.5697 13.3809 26.535 13.8525 26.9666 12.2182ZM42.8635 13.2905C45.1477 13.3981 47.4266 13.3538 49.7 13.1581C49.8406 13.1452 49.8854 13.2033 49.835 13.3325L48.896 15.7161C48.8456 15.843 48.7501 15.9067 48.6094 15.9067H33.6218C33.5118 15.9054 33.4535 15.7729 33.523 15.6935L44.7414 2.98417C44.7938 2.92507 44.7464 2.82882 44.669 2.82914C42.4286 2.82268 40.03 2.58045 37.8555 3.19088C37.7148 3.22964 37.672 3.18313 37.727 3.052L38.8242 0.358334C38.8792 0.22688 38.978 0.161315 39.1207 0.161315H53.9765C54.1718 0.161315 54.2061 0.23334 54.0786 0.377713L42.7877 13.1161C42.6931 13.2259 42.7185 13.284 42.8635 13.2905ZM70.3906 3.82392L63.0731 15.7549C63.0464 15.8026 63.0067 15.842 62.9584 15.8688C62.9101 15.8957 62.8551 15.9087 62.7997 15.9067H58.9548C58.823 15.9067 58.7505 15.8421 58.7373 15.7129L57.6336 3.85299C57.6253 3.77322 57.5018 3.75868 57.4787 3.84007C56.5498 7.39669 55.6493 10.9604 54.7771 14.5308C54.7135 14.7891 54.7629 15.1883 54.9253 15.729C54.9606 15.8472 54.9145 15.9067 54.787 15.9067L51.4297 15.9034C51.2913 15.9057 51.2175 15.7258 51.3275 15.6354C51.6768 15.3295 51.9229 14.9128 52.0655 14.3854C53.1328 10.4369 54.1554 6.47692 55.1329 2.50616C55.3461 1.64057 55.379 0.905141 55.2317 0.300197C55.2097 0.207501 55.2472 0.161315 55.3438 0.161315H63.4158C63.5123 0.161315 63.565 0.20847 63.5739 0.303426L64.3086 8.90442C64.31 8.92518 64.3181 8.94497 64.3317 8.96094C64.3456 8.97673 64.3643 8.98776 64.385 8.99241C64.4058 8.99705 64.4275 8.99508 64.447 8.98678C64.4664 8.97851 64.4826 8.96436 64.4931 8.94641L69.8701 0.300197C69.8952 0.256367 69.9322 0.220199 69.9769 0.195689C70.0217 0.171179 70.0725 0.159282 70.1238 0.161315H77.8564C78.008 0.161315 78.0452 0.225912 77.9684 0.355105C77.5797 1.00107 77.2436 1.59212 77.0525 2.31883C76.0268 6.19644 75.0373 10.0831 74.084 13.9785C73.9357 14.5889 73.9588 15.1444 74.0444 15.7419C74.0599 15.8518 74.0105 15.9067 73.8962 15.9067H67.2244C67.119 15.9086 67.0488 15.783 67.1124 15.6967C67.4023 15.2875 67.6221 14.8214 67.7714 14.2982C68.7507 10.8412 69.6679 7.36752 70.5224 3.87883C70.5972 3.57717 70.5531 3.55908 70.3906 3.82392ZM93.8291 0.25498C96.5769 0.348644 96.7614 2.21871 96.3001 4.43436C95.8023 6.83198 95.1977 9.20709 94.488 11.5529C93.5326 14.7149 92.1751 15.8647 88.8772 15.897C85.0049 15.9312 81.987 15.927 79.8233 15.884C77.0756 15.8291 76.812 13.9203 77.2831 11.6982C77.6169 10.1327 77.9948 8.57821 78.4165 7.03436C79.8036 1.97324 80.1429 0.200073 85.7143 0.154855C88.4268 0.130955 91.1317 0.164545 93.8291 0.25498ZM88.2479 12.2408C88.9727 9.35982 89.7173 6.48852 90.4355 3.61076C90.5301 3.22964 90.2253 2.83722 89.8194 2.83237C88.8212 2.81945 85.7505 2.41895 85.4079 3.6269C84.9291 5.32127 84.1657 8.31756 83.118 12.6155C83.0917 12.7208 83.1124 12.8177 83.1806 12.9062C83.6682 13.5457 87.2628 13.4875 87.8459 12.9869C88.0281 12.8319 88.1622 12.5832 88.2479 12.2408Z" fill="#FEFEFF"/>
<path d="M98.7198 0.53229C99.1901 1.72211 99.441 2.88063 100.601 9.33072L101.824 16L109.004 15.8121L112.892 8.92368C115.024 5.16634 117.125 1.59687 117.563 1.03327L118.347 0H114.021L113.707 1.09589C113.299 2.41096 107.875 12.1174 107.781 11.7104C107.279 9.98826 106.057 1.90998 106.151 1.09589L106.276 0H102.388C98.8139 0 98.5004 0.0313112 98.7198 0.53229Z" fill="#8FB5C7"/>
<path d="M118.849 0.845408C119.006 1.81605 116.999 13.4012 116.466 14.8102C116.278 15.3112 116.121 15.7495 116.121 15.8435C116.121 15.9061 117.752 15.9687 119.758 15.9687C123.05 15.9687 123.364 15.9061 123.207 15.4364C123.082 15.1546 123.176 13.9022 123.395 12.6184L123.772 10.3327H127.785C133.523 10.3327 134.15 9.89433 134.933 5.10373C135.749 0.187874 135.404 7.2656e-06 125.747 7.2656e-06H118.724L118.849 0.845408ZM128.349 3.13112C128.819 3.38161 128.882 3.6321 128.631 4.7593C128.004 7.76517 128.224 7.51468 126.123 7.51468C124.461 7.51468 124.242 7.45206 124.399 6.95108C124.493 6.66928 124.649 5.69864 124.775 4.85324C124.869 3.97652 125.026 3.19374 125.12 3.03719C125.308 2.72408 127.659 2.75539 128.349 3.13112Z" fill="#8FB5C7"/>
<path d="M136.971 0.688853C137.222 1.62819 135.028 13.9648 134.432 15.092L133.962 15.9687H136.031C137.881 15.9687 138.1 15.9061 137.943 15.4051C137.849 15.1233 138.194 12.4618 138.696 9.54991C139.229 6.60666 139.637 4.07046 139.637 3.9139C139.637 3.72603 140.546 6.35617 141.675 9.70646L143.681 15.8121L147.757 15.9061C150.015 15.9374 151.865 15.9374 151.865 15.8748C151.865 15.2172 154.404 1.81605 154.655 1.15852C154.843 0.657542 155 0.219185 155 0.125252C155 0.0626296 154.153 7.2656e-06 153.119 7.2656e-06H151.237V1.15852C151.237 1.81605 150.861 4.60275 150.391 7.35813L149.544 12.3679L147.538 6.1683L145.531 7.2656e-06H136.815L136.971 0.688853Z" fill="#8FB5C7"/>
</svg>
